<svg height="361pt" viewBox="-13 0 361 361.81333" width="361pt" xmlns="http://www.w3.org/2000/svg"><path d="m7.234375 150.160156c-3.773437 0-6.828125-3.054687-6.828125-6.828125 0-41.394531 33.671875-75.066406 75.066406-75.066406h10.800782c3.773437 0 6.824218 3.054687 6.824218 6.828125s-3.050781 6.828125-6.824218 6.828125h-10.800782c-33.867187 0-61.414062 27.546875-61.414062 61.410156 0 3.773438-3.050782 6.828125-6.824219 6.828125zm0 0"/><path d="m93.425781 113.78125c-2.8125 0-5.445312-1.746094-6.433593-4.554688-3.097657-8.753906-4.664063-17.941406-4.664063-27.304687 0-45.175781 36.746094-81.921875 81.917969-81.921875 45.175781 0 81.921875 36.746094 81.921875 81.921875 0 8.746094-1.375 17.351563-4.082031 25.589844-1.179688 3.582031-5.046876 5.527343-8.621094 4.355469-3.578125-1.179688-5.523438-5.039063-4.351563-8.621094 2.253907-6.859375 3.398438-14.035156 3.398438-21.324219 0-37.640625-30.625-68.269531-68.265625-68.269531s-68.265625 30.628906-68.265625 68.269531c0 7.8125 1.308593 15.464844 3.878906 22.757813 1.257813 3.554687-.605469 7.453124-4.160156 8.707031-.75.265625-1.519531.394531-2.273438.394531zm0 0"/><path d="m164.246094 54.613281c-3.773438 0-6.824219-3.054687-6.824219-6.828125v-13.652344c0-3.773437 3.050781-6.824218 6.824219-6.824218 3.773437 0 6.828125 3.050781 6.828125 6.824218v13.652344c0 3.773438-3.054688 6.828125-6.828125 6.828125zm0 0"/><path d="m298.539062 361.8125h-261.761718c-20.050782 0-36.371094-16.316406-36.371094-36.371094v-186.667968c0-20.054688 16.320312-36.375 36.371094-36.375h261.761718c20.054688 0 36.371094 16.320312 36.371094 36.375v186.664062c.003906 20.058594-16.316406 36.375-36.371094 36.375zm-261.761718-245.757812c-12.523438 0-22.71875 10.191406-22.71875 22.71875v186.664062c0 12.527344 10.195312 22.722656 22.71875 22.722656h261.761718c12.527344 0 22.71875-10.195312 22.71875-22.71875v-186.667968c0-12.527344-10.195312-22.71875-22.71875-22.71875zm0 0"/><path d="m328.085938 286.71875h-78.507813c-24.464844 0-44.371094-19.90625-44.371094-44.371094 0-24.46875 19.90625-44.375 44.371094-44.375h78.507813c3.773437 0 6.828124 3.054688 6.828124 6.828125v75.09375c0 3.773438-3.054687 6.824219-6.828124 6.824219zm-78.507813-75.09375c-16.9375 0-30.71875 13.78125-30.71875 30.722656 0 16.9375 13.78125 30.71875 30.71875 30.71875h71.683594v-61.441406zm0 0"/><path d="m249.578125 266.238281c-13.171875 0-23.890625-10.71875-23.890625-23.890625 0-13.175781 10.71875-23.894531 23.890625-23.894531 13.175781 0 23.894531 10.71875 23.894531 23.894531 0 13.171875-10.71875 23.890625-23.894531 23.890625zm0-34.132812c-5.644531 0-10.238281 4.59375-10.238281 10.242187 0 5.644532 4.59375 10.238282 10.238281 10.238282 5.648437 0 10.242187-4.59375 10.242187-10.238282 0-5.648437-4.59375-10.242187-10.242187-10.242187zm0 0"/><path d="m20.886719 150.1875h-13.652344c-3.773437 0-6.828125-3.054688-6.828125-6.828125s3.054688-6.824219 6.828125-6.824219h13.652344c3.773437 0 6.828125 3.050782 6.828125 6.824219s-3.054688 6.828125-6.828125 6.828125zm0 0"/><path d="m287.746094 150.1875h-26.6875c-3.773438 0-6.828125-3.054688-6.828125-6.828125s3.054687-6.824219 6.828125-6.824219h26.6875c3.773437 0 6.828125 3.050782 6.828125 6.824219s-3.054688 6.828125-6.828125 6.828125zm-53.371094 0h-26.6875c-3.773438 0-6.828125-3.054688-6.828125-6.828125s3.054687-6.824219 6.828125-6.824219h26.6875c3.773438 0 6.824219 3.050782 6.824219 6.824219s-3.050781 6.828125-6.824219 6.828125zm-53.367188 0h-26.6875c-3.773437 0-6.828124-3.054688-6.828124-6.828125s3.054687-6.824219 6.828124-6.824219h26.6875c3.773438 0 6.824219 3.050782 6.824219 6.824219s-3.050781 6.828125-6.824219 6.828125zm-53.375 0h-26.6875c-3.773437 0-6.824218-3.054688-6.824218-6.828125s3.050781-6.824219 6.824218-6.824219h26.6875c3.773438 0 6.828126 3.050782 6.828126 6.824219s-3.054688 6.828125-6.828126 6.828125zm-53.375 0h-26.683593c-3.773438 0-6.828125-3.054688-6.828125-6.828125s3.054687-6.824219 6.828125-6.824219h26.6875c3.773437 0 6.824219 3.050782 6.824219 6.824219s-3.054688 6.828125-6.828126 6.828125zm0 0"/><path d="m328.085938 150.1875h-13.652344c-3.773438 0-6.828125-3.054688-6.828125-6.828125s3.054687-6.824219 6.828125-6.824219h13.652344c3.773437 0 6.828124 3.050782 6.828124 6.824219s-3.054687 6.828125-6.828124 6.828125zm0 0"/><path d="m156.246094 109.226562v-19.3125c0-.480468.242187-.71875.714844-.71875h16.953124c7.878907 0 12.292969 4.539063 12.292969 11.226563 0 3.773437-1.40625 6.8125-3.96875 8.804687h16.648438c.863281-2.644531 1.40625-5.558593 1.40625-8.925781 0-9.90625-5.847657-16.351562-10.859375-18.265625v-.242187c5.132812-2.746094 9.425781-7.992188 9.425781-17.183594 0-13.015625-8.113281-21.609375-25.304687-21.609375h-30.199219c-.714844 0-1.195313.472656-1.195313 1.195312v65.03125zm0-53.097656c0-.472656.242187-.714844.714844-.714844h16.238281c7.160156 0 11.582031 4.300782 11.582031 10.746094 0 6.328125-4.421875 10.621094-11.582031 10.621094h-16.238281c-.472657 0-.714844-.242188-.714844-.714844zm0 0"/></svg>